%TF.GenerationSoftware,KiCad,Pcbnew,9.0.4-1.fc42*%
%TF.CreationDate,2025-10-12T01:34:26+03:00*%
%TF.ProjectId,DRP.004,4452502e-3030-4342-9e6b-696361645f70,v3*%
%TF.SameCoordinates,Original*%
%TF.FileFunction,Component,L1,Top*%
%TF.FilePolarity,Positive*%
%FSLAX46Y46*%
G04 Gerber Fmt 4.6, Leading zero omitted, Abs format (unit mm)*
G04 Created by KiCad (PCBNEW 9.0.4-1.fc42) date 2025-10-12 01:34:26*
%MOMM*%
%LPD*%
G01*
G04 APERTURE LIST*
%TA.AperFunction,ComponentMain*%
%ADD10C,0.300000*%
%TD*%
%TA.AperFunction,ComponentOutline,Courtyard*%
%ADD11C,0.100000*%
%TD*%
%TA.AperFunction,ComponentPin*%
%ADD12P,0.360000X4X0.000000*%
%TD*%
%TA.AperFunction,ComponentPin*%
%ADD13C,0.100000*%
%TD*%
%TA.AperFunction,Profile*%
%ADD14C,0.050000*%
%TD*%
G04 APERTURE END LIST*
D10*
%TO.C,C8*%
%TO.CFtp,C_0603_1608Metric*%
%TO.CVal,4.7uF*%
%TO.CLbN,Capacitor_SMD*%
%TO.CMnt,SMD*%
%TO.CRot,0*%
X171166000Y-84190000D03*
D11*
X172641000Y-83465000D02*
X172641000Y-84915000D01*
X169691000Y-84915000D01*
X169691000Y-83465000D01*
X172641000Y-83465000D01*
D12*
%TO.P,C8,1*%
X170391000Y-84190000D03*
D13*
%TO.P,C8,2*%
X171941000Y-84190000D03*
%TD*%
D10*
%TO.C,R8*%
%TO.CFtp,R_0603_1608Metric*%
%TO.CVal,100k*%
%TO.CLbN,Resistor_SMD*%
%TO.CMnt,SMD*%
%TO.CRot,180*%
X171480000Y-92329000D03*
D11*
X172955000Y-91604000D02*
X172955000Y-93054000D01*
X170005000Y-93054000D01*
X170005000Y-91604000D01*
X172955000Y-91604000D01*
D12*
%TO.P,R8,1*%
X172305000Y-92329000D03*
D13*
%TO.P,R8,2*%
X170655000Y-92329000D03*
%TD*%
D10*
%TO.C,C7*%
%TO.CFtp,C_0603_1608Metric*%
%TO.CVal,0.1uF*%
%TO.CLbN,Capacitor_SMD*%
%TO.CMnt,SMD*%
%TO.CRot,-90*%
X185009000Y-80634000D03*
D11*
X185734000Y-79159000D02*
X185734000Y-82109000D01*
X184284000Y-82109000D01*
X184284000Y-79159000D01*
X185734000Y-79159000D01*
D12*
%TO.P,C7,1*%
X185009000Y-79859000D03*
D13*
%TO.P,C7,2*%
X185009000Y-81409000D03*
%TD*%
D10*
%TO.C,U6*%
%TO.CFtp,QFN-28_4x4mm_P0.5mm*%
%TO.CVal,STM32G031G8Ux*%
%TO.CLbN,Muffin_SMD*%
%TO.CMnt,SMD*%
%TO.CRot,-90*%
X183048200Y-88704100D03*
D11*
X185673200Y-86079100D02*
X185673200Y-91329100D01*
X180423200Y-91329100D01*
X180423200Y-86079100D01*
X185673200Y-86079100D01*
D12*
%TO.P,U6,1,PC14*%
X184548200Y-86706600D03*
D13*
%TO.P,U6,2,PC15*%
X184048200Y-86766600D03*
%TO.P,U6,3,VDD*%
X183548200Y-86766600D03*
%TO.P,U6,4,VSS*%
X183048200Y-86766600D03*
%TO.P,U6,5,PF2*%
X182548200Y-86766600D03*
%TO.P,U6,6,PA0*%
X182048200Y-86766600D03*
%TO.P,U6,7,PA1*%
X181548200Y-86706600D03*
%TO.P,U6,8,PA2*%
X181050700Y-87204100D03*
%TO.P,U6,9,PA3*%
X181110700Y-87704100D03*
%TO.P,U6,10,PA4*%
X181110700Y-88204100D03*
%TO.P,U6,11,PA5*%
X181110700Y-88704100D03*
%TO.P,U6,12,PA6*%
X181110700Y-89204100D03*
%TO.P,U6,13,PA7*%
X181110700Y-89704100D03*
%TO.P,U6,14,PB0*%
X181050700Y-90204100D03*
%TO.P,U6,15,PB1*%
X181548200Y-90701600D03*
%TO.P,U6,16,PA8*%
X182048200Y-90641600D03*
%TO.P,U6,17,PC6*%
X182548200Y-90641600D03*
%TO.P,U6,18,PA9/PA11*%
X183048200Y-90641600D03*
%TO.P,U6,19,PA10/PA12*%
X183548200Y-90641600D03*
%TO.P,U6,20,PA13*%
X184048200Y-90641600D03*
%TO.P,U6,21,PA14*%
X184548200Y-90701600D03*
%TO.P,U6,22,PA15*%
X185045700Y-90204100D03*
%TO.P,U6,23,PB3*%
X184985700Y-89704100D03*
%TO.P,U6,24,PB4*%
X184985700Y-89204100D03*
%TO.P,U6,25,PB5*%
X184985700Y-88704100D03*
%TO.P,U6,26,PB6*%
X184985700Y-88204100D03*
%TO.P,U6,27,PB7*%
X184985700Y-87704100D03*
%TO.P,U6,28,PB8*%
X185045700Y-87204100D03*
%TD*%
D10*
%TO.C,FID2*%
%TO.CFtp,Fiducial_0.5mm_Mask1.5mm*%
%TO.CVal,Fiducial*%
%TO.CLbN,Fiducial*%
%TO.CMnt,SMD*%
%TO.CRot,0*%
X194076800Y-95416800D03*
D11*
X194326835Y-94451091D02*
X194516118Y-94521193D01*
X194687406Y-94627958D01*
X194833702Y-94767022D01*
X194949005Y-94932684D01*
X195028604Y-95118169D01*
X195069248Y-95315945D01*
X195071798Y-95416800D01*
X195069248Y-95517654D01*
X195028604Y-95715430D01*
X194949005Y-95900915D01*
X194833702Y-96066577D01*
X194687406Y-96205641D01*
X194516118Y-96312406D01*
X194326835Y-96382508D01*
X194127329Y-96413072D01*
X193925738Y-96402848D01*
X193730346Y-96352258D01*
X193549132Y-96263367D01*
X193389519Y-96139818D01*
X193258045Y-95986670D01*
X193160091Y-95810190D01*
X193099666Y-95617603D01*
X193079247Y-95416800D01*
X193099666Y-95215996D01*
X193160091Y-95023409D01*
X193258045Y-94846929D01*
X193389519Y-94693781D01*
X193549132Y-94570232D01*
X193730346Y-94481341D01*
X193925738Y-94430751D01*
X194127329Y-94420527D01*
X194326835Y-94451091D01*
D13*
%TO.P,FID2,*%
X194076800Y-95416800D03*
%TD*%
D10*
%TO.C,D5*%
%TO.CFtp,LED_0805_2012Metric*%
%TO.CVal,LED*%
%TO.CLbN,LED_SMD*%
%TO.CMnt,SMD*%
%TO.CRot,90*%
X193772000Y-73649000D03*
D11*
X194717000Y-71974000D02*
X194717000Y-75324000D01*
X192827000Y-75324000D01*
X192827000Y-71974000D01*
X194717000Y-71974000D01*
D12*
%TO.P,D5,1,K*%
X193772000Y-74586500D03*
D13*
%TO.P,D5,2,A*%
X193772000Y-72711500D03*
%TD*%
D10*
%TO.C,Q3*%
%TO.CFtp,SOT-523*%
%TO.CVal,DTC143Z*%
%TO.CLbN,Muffin_SMD*%
%TO.CMnt,SMD*%
%TO.CRot,-90*%
X195169000Y-83037000D03*
D11*
X196214000Y-81892000D02*
X196214000Y-84182000D01*
X194124000Y-84182000D01*
X194124000Y-81892000D01*
X196214000Y-81892000D01*
D12*
%TO.P,Q3,1,B*%
X195669000Y-82392000D03*
D13*
%TO.P,Q3,2,E*%
X194669000Y-82392000D03*
%TO.P,Q3,3,C*%
X195169000Y-83682000D03*
%TD*%
D10*
%TO.C,C16*%
%TO.CFtp,C_0603_1608Metric*%
%TO.CVal,10nF*%
%TO.CLbN,Capacitor_SMD*%
%TO.CMnt,SMD*%
%TO.CRot,-90*%
X183866000Y-93842000D03*
D11*
X184591000Y-92367000D02*
X184591000Y-95317000D01*
X183141000Y-95317000D01*
X183141000Y-92367000D01*
X184591000Y-92367000D01*
D12*
%TO.P,C16,1*%
X183866000Y-93067000D03*
D13*
%TO.P,C16,2*%
X183866000Y-94617000D03*
%TD*%
D10*
%TO.C,U2*%
%TO.CFtp,X1SON-2_L1.0-W0.6-P0.65-BI*%
%TO.CVal,TPD1E10B06DPYR*%
%TO.CLbN,Muffin_SMD*%
%TO.CMnt,SMD*%
%TO.CRot,0*%
X209520000Y-91302000D03*
D11*
X210465000Y-90757000D02*
X210465000Y-91847000D01*
X208575000Y-91847000D01*
X208575000Y-90757000D01*
X210465000Y-90757000D01*
D12*
%TO.P,U2,1*%
X209020000Y-91302000D03*
D13*
%TO.P,U2,2*%
X210020000Y-91302000D03*
%TD*%
D10*
%TO.C,SW3*%
%TO.CFtp,SW_Slide_SPDT_Angled_CK_OS102011MA1Q*%
%TO.CVal,SW_SPDT*%
%TO.CLbN,Button_Switch_THT*%
%TO.CMnt,TH*%
%TO.CRot,180*%
X180310000Y-73776000D03*
D11*
X184005000Y-67081000D02*
X184005000Y-76471000D01*
X172615000Y-76471000D01*
X172615000Y-67081000D01*
X184005000Y-67081000D01*
D12*
%TO.P,SW3,1,A*%
X180310000Y-73776000D03*
D13*
%TO.P,SW3,*%
X182410000Y-73776000D03*
X174210000Y-73776000D03*
%TO.P,SW3,2,B*%
X178310000Y-73776000D03*
%TO.P,SW3,3,C*%
X176310000Y-73776000D03*
%TD*%
D10*
%TO.C,D3*%
%TO.CFtp,LED_0805_2012Metric*%
%TO.CVal,LED*%
%TO.CLbN,LED_SMD*%
%TO.CMnt,SMD*%
%TO.CRot,90*%
X186660000Y-73649000D03*
D11*
X187605000Y-71974000D02*
X187605000Y-75324000D01*
X185715000Y-75324000D01*
X185715000Y-71974000D01*
X187605000Y-71974000D01*
D12*
%TO.P,D3,1,K*%
X186660000Y-74586500D03*
D13*
%TO.P,D3,2,A*%
X186660000Y-72711500D03*
%TD*%
D10*
%TO.C,C13*%
%TO.CFtp,C_0603_1608Metric*%
%TO.CVal,0.1uF*%
%TO.CLbN,Capacitor_SMD*%
%TO.CMnt,SMD*%
%TO.CRot,180*%
X184292800Y-84494800D03*
D11*
X185767800Y-83769800D02*
X185767800Y-85219800D01*
X182817800Y-85219800D01*
X182817800Y-83769800D01*
X185767800Y-83769800D01*
D12*
%TO.P,C13,1*%
X185067800Y-84494800D03*
D13*
%TO.P,C13,2*%
X183517800Y-84494800D03*
%TD*%
D10*
%TO.C,R4*%
%TO.CFtp,R_0603_1608Metric*%
%TO.CVal,33k*%
%TO.CLbN,Resistor_SMD*%
%TO.CMnt,SMD*%
%TO.CRot,180*%
X166721000Y-81269000D03*
D11*
X168196000Y-80544000D02*
X168196000Y-81994000D01*
X165246000Y-81994000D01*
X165246000Y-80544000D01*
X168196000Y-80544000D01*
D12*
%TO.P,R4,1*%
X167546000Y-81269000D03*
D13*
%TO.P,R4,2*%
X165896000Y-81269000D03*
%TD*%
D10*
%TO.C,U4*%
%TO.CFtp,X1SON-2_L1.0-W0.6-P0.65-BI*%
%TO.CVal,TPD1E10B06DPYR*%
%TO.CLbN,Muffin_SMD*%
%TO.CMnt,SMD*%
%TO.CRot,-90*%
X165781200Y-78035200D03*
D11*
X166326200Y-77090200D02*
X166326200Y-78980200D01*
X165236200Y-78980200D01*
X165236200Y-77090200D01*
X166326200Y-77090200D01*
D12*
%TO.P,U4,1*%
X165781200Y-77535200D03*
D13*
%TO.P,U4,2*%
X165781200Y-78535200D03*
%TD*%
D10*
%TO.C,C5*%
%TO.CFtp,C_0603_1608Metric*%
%TO.CVal,1uF*%
%TO.CLbN,Capacitor_SMD*%
%TO.CMnt,SMD*%
%TO.CRot,180*%
X187676000Y-79872000D03*
D11*
X189151000Y-79147000D02*
X189151000Y-80597000D01*
X186201000Y-80597000D01*
X186201000Y-79147000D01*
X189151000Y-79147000D01*
D12*
%TO.P,C5,1*%
X188451000Y-79872000D03*
D13*
%TO.P,C5,2*%
X186901000Y-79872000D03*
%TD*%
D10*
%TO.C,C3*%
%TO.CFtp,C_0805_2012Metric*%
%TO.CVal,22uF*%
%TO.CLbN,Capacitor_SMD*%
%TO.CMnt,SMD*%
%TO.CRot,180*%
X207234000Y-89397000D03*
D11*
X208929000Y-88422000D02*
X208929000Y-90372000D01*
X205539000Y-90372000D01*
X205539000Y-88422000D01*
X208929000Y-88422000D01*
D12*
%TO.P,C3,1*%
X208184000Y-89397000D03*
D13*
%TO.P,C3,2*%
X206284000Y-89397000D03*
%TD*%
D10*
%TO.C,C9*%
%TO.CFtp,C_0603_1608Metric*%
%TO.CVal,10nF*%
%TO.CLbN,Capacitor_SMD*%
%TO.CMnt,SMD*%
%TO.CRot,-90*%
X175310800Y-87986700D03*
D11*
X176035800Y-86511700D02*
X176035800Y-89461700D01*
X174585800Y-89461700D01*
X174585800Y-86511700D01*
X176035800Y-86511700D01*
D12*
%TO.P,C9,1*%
X175310800Y-87211700D03*
D13*
%TO.P,C9,2*%
X175310800Y-88761700D03*
%TD*%
D10*
%TO.C,C1*%
%TO.CFtp,C_0603_1608Metric*%
%TO.CVal,4.7uF*%
%TO.CLbN,Capacitor_SMD*%
%TO.CMnt,SMD*%
%TO.CRot,90*%
X170531000Y-77459000D03*
D11*
X171256000Y-75984000D02*
X171256000Y-78934000D01*
X169806000Y-78934000D01*
X169806000Y-75984000D01*
X171256000Y-75984000D01*
D12*
%TO.P,C1,1*%
X170531000Y-78234000D03*
D13*
%TO.P,C1,2*%
X170531000Y-76684000D03*
%TD*%
D10*
%TO.C,J6*%
%TO.CFtp,Connector_JST_1x03_P1.27mm*%
%TO.CVal,Conn_01x03_Pin*%
%TO.CLbN,Connector_Muffin_THT.pretty*%
%TO.CMnt,TH*%
%TO.CRot,90*%
X178684400Y-93197014D03*
D11*
X183079400Y-91452014D02*
X183079400Y-97592014D01*
X176889400Y-97592014D01*
X176889400Y-91452014D01*
X183079400Y-91452014D01*
D12*
%TO.P,J6,1,Pin_1*%
X178684400Y-93197014D03*
D13*
%TO.P,J6,2,Pin_2*%
X179954400Y-93197014D03*
%TO.P,J6,3,Pin_3*%
X181224400Y-93197014D03*
%TD*%
D10*
%TO.C,C2*%
%TO.CFtp,C_0805_2012Metric*%
%TO.CVal,10uF*%
%TO.CLbN,Capacitor_SMD*%
%TO.CMnt,SMD*%
%TO.CRot,0*%
X207691200Y-81675400D03*
D11*
X209386200Y-80700400D02*
X209386200Y-82650400D01*
X205996200Y-82650400D01*
X205996200Y-80700400D01*
X209386200Y-80700400D01*
D12*
%TO.P,C2,1*%
X206741200Y-81675400D03*
D13*
%TO.P,C2,2*%
X208641200Y-81675400D03*
%TD*%
D10*
%TO.C,SW2*%
%TO.CFtp,SW_Tactile_SPST_Angled_PTS645Vx58-2LFS*%
%TO.CVal,SW_Push*%
%TO.CLbN,Button_Switch_THT*%
%TO.CMnt,TH*%
%TO.CRot,0*%
X200319000Y-73622800D03*
D11*
X207364000Y-70827800D02*
X207364000Y-78067800D01*
X197824000Y-78067800D01*
X197824000Y-70827800D01*
X207364000Y-70827800D01*
D12*
%TO.P,SW2,1,1*%
X200319000Y-73622800D03*
D13*
%TO.P,SW2,*%
X199069000Y-76112800D03*
X206079000Y-76112800D03*
%TO.P,SW2,2,2*%
X204819000Y-73622800D03*
%TD*%
D10*
%TO.C,J2*%
%TO.CFtp,USB_C_Receptacle_GCT_USB4125-xx-x-0190_6P_TopMnt_Horizontal*%
%TO.CVal,USB_C_Receptacle_PowerOnly_6P*%
%TO.CLbN,Connector_USB*%
%TO.CMnt,SMD*%
%TO.CRot,-90*%
X160840800Y-76500000D03*
D11*
X165185800Y-71135000D02*
X165185800Y-81865000D01*
X156945800Y-81865000D01*
X156945800Y-71135000D01*
X165185800Y-71135000D01*
D13*
%TO.P,J2,A5,CC1*%
X163920800Y-76000000D03*
%TO.P,J2,A9,VBUS*%
X163920800Y-78020000D03*
%TO.P,J2,A12,GND*%
X163920800Y-79250000D03*
%TO.P,J2,B5,CC2*%
X163920800Y-77000000D03*
%TO.P,J2,B9,VBUS*%
X163920800Y-74980000D03*
%TO.P,J2,B12,GND*%
X163920800Y-73750000D03*
%TO.P,J2,S1,SHIELD*%
X163840800Y-72180000D03*
X160040800Y-72180000D03*
X163840800Y-80820000D03*
X160040800Y-80820000D03*
%TD*%
D10*
%TO.C,Q2*%
%TO.CFtp,SOT-23*%
%TO.CVal,AO3400*%
%TO.CLbN,Package_TO_SOT_SMD*%
%TO.CMnt,SMD*%
%TO.CRot,180*%
X170987900Y-89778800D03*
D11*
X171882900Y-88083800D02*
X171882900Y-88283800D01*
X172912900Y-88283800D01*
X172912900Y-91273800D01*
X171882900Y-91273800D01*
X171882900Y-91473800D01*
X170092900Y-91473800D01*
X170092900Y-90323800D01*
X169062900Y-90323800D01*
X169062900Y-89233800D01*
X170092900Y-89233800D01*
X170092900Y-88083800D01*
X171882900Y-88083800D01*
D12*
%TO.P,Q2,1,G*%
X171925400Y-90728800D03*
D13*
%TO.P,Q2,2,S*%
X171925400Y-88828800D03*
%TO.P,Q2,3,D*%
X170050400Y-89778800D03*
%TD*%
D10*
%TO.C,R21*%
%TO.CFtp,R_0603_1608Metric*%
%TO.CVal,220*%
%TO.CLbN,Resistor_SMD*%
%TO.CMnt,SMD*%
%TO.CRot,-90*%
X191994000Y-73395000D03*
D11*
X192719000Y-71920000D02*
X192719000Y-74870000D01*
X191269000Y-74870000D01*
X191269000Y-71920000D01*
X192719000Y-71920000D01*
D12*
%TO.P,R21,1*%
X191994000Y-72570000D03*
D13*
%TO.P,R21,2*%
X191994000Y-74220000D03*
%TD*%
D10*
%TO.C,U7*%
%TO.CFtp,SOT-23-5*%
%TO.CVal,AP2112K-1.8*%
%TO.CLbN,Package_TO_SOT_SMD*%
%TO.CMnt,SMD*%
%TO.CRot,-90*%
X187676000Y-82742200D03*
D11*
X189171000Y-80697200D02*
X189171000Y-81697200D01*
X189371000Y-81697200D01*
X189371000Y-83787200D01*
X189171000Y-83787200D01*
X189171000Y-84787200D01*
X186181000Y-84787200D01*
X186181000Y-83787200D01*
X185981000Y-83787200D01*
X185981000Y-81697200D01*
X186181000Y-81697200D01*
X186181000Y-80697200D01*
X189171000Y-80697200D01*
D12*
%TO.P,U7,1,VIN*%
X188626000Y-81604700D03*
D13*
%TO.P,U7,2,GND*%
X187676000Y-81604700D03*
%TO.P,U7,3,EN*%
X186726000Y-81604700D03*
%TO.P,U7,4,NC*%
X186726000Y-83879700D03*
%TO.P,U7,5,VOUT*%
X188626000Y-83879700D03*
%TD*%
D10*
%TO.C,R7*%
%TO.CFtp,R_0603_1608Metric*%
%TO.CVal,5.1k*%
%TO.CLbN,Resistor_SMD*%
%TO.CMnt,SMD*%
%TO.CRot,180*%
X206980000Y-91175000D03*
D11*
X208455000Y-90450000D02*
X208455000Y-91900000D01*
X205505000Y-91900000D01*
X205505000Y-90450000D01*
X208455000Y-90450000D01*
D12*
%TO.P,R7,1*%
X207805000Y-91175000D03*
D13*
%TO.P,R7,2*%
X206155000Y-91175000D03*
%TD*%
D10*
%TO.C,R23*%
%TO.CFtp,R_0603_1608Metric*%
%TO.CVal,220*%
%TO.CLbN,Resistor_SMD*%
%TO.CMnt,SMD*%
%TO.CRot,-90*%
X195550000Y-73395000D03*
D11*
X196275000Y-71920000D02*
X196275000Y-74870000D01*
X194825000Y-74870000D01*
X194825000Y-71920000D01*
X196275000Y-71920000D01*
D12*
%TO.P,R23,1*%
X195550000Y-72570000D03*
D13*
%TO.P,R23,2*%
X195550000Y-74220000D03*
%TD*%
D10*
%TO.C,R6*%
%TO.CFtp,R_0402_1005Metric*%
%TO.CVal,750k*%
%TO.CLbN,Resistor_SMD*%
%TO.CMnt,SMD*%
%TO.CRot,90*%
X210040000Y-84342400D03*
D11*
X210505000Y-83417400D02*
X210505000Y-85267400D01*
X209575000Y-85267400D01*
X209575000Y-83417400D01*
X210505000Y-83417400D01*
D12*
%TO.P,R6,1*%
X210040000Y-84852400D03*
D13*
%TO.P,R6,2*%
X210040000Y-83832400D03*
%TD*%
D10*
%TO.C,U5*%
%TO.CFtp,RWU0007A*%
%TO.CVal,TPS61022RWUR*%
%TO.CLbN,Muffin_SMD*%
%TO.CMnt,SMD*%
%TO.CRot,90*%
X207246000Y-84758600D03*
D11*
X208491000Y-83313600D02*
X208491000Y-86203600D01*
X206001000Y-86203600D01*
X206001000Y-83313600D01*
X208491000Y-83313600D01*
D12*
%TO.P,U5,1,GND*%
X206696000Y-85383600D03*
D13*
%TO.P,U5,2,SW*%
X207246000Y-85233600D03*
%TO.P,U5,3,VOUT*%
X207796000Y-85383600D03*
%TO.P,U5,4,FB*%
X207996000Y-83783600D03*
%TO.P,U5,5,EN*%
X207496000Y-83783600D03*
%TO.P,U5,6,MODE*%
X206996000Y-83783600D03*
%TO.P,U5,7,VIN*%
X206496000Y-83783600D03*
%TD*%
D10*
%TO.C,C10*%
%TO.CFtp,C_0603_1608Metric*%
%TO.CVal,0.1uF*%
%TO.CLbN,Capacitor_SMD*%
%TO.CMnt,SMD*%
%TO.CRot,180*%
X192502000Y-84139200D03*
D11*
X193977000Y-83414200D02*
X193977000Y-84864200D01*
X191027000Y-84864200D01*
X191027000Y-83414200D01*
X193977000Y-83414200D01*
D12*
%TO.P,C10,1*%
X193277000Y-84139200D03*
D13*
%TO.P,C10,2*%
X191727000Y-84139200D03*
%TD*%
D10*
%TO.C,R11*%
%TO.CFtp,R_0603_1608Metric*%
%TO.CVal,5.1k*%
%TO.CLbN,Resistor_SMD*%
%TO.CMnt,SMD*%
%TO.CRot,90*%
X169007000Y-74411000D03*
D11*
X169732000Y-72936000D02*
X169732000Y-75886000D01*
X168282000Y-75886000D01*
X168282000Y-72936000D01*
X169732000Y-72936000D01*
D12*
%TO.P,R11,1*%
X169007000Y-75236000D03*
D13*
%TO.P,R11,2*%
X169007000Y-73586000D03*
%TD*%
D10*
%TO.C,R17*%
%TO.CFtp,R_0603_1608Metric*%
%TO.CVal,10k*%
%TO.CLbN,Resistor_SMD*%
%TO.CMnt,SMD*%
%TO.CRot,90*%
X173786800Y-87986700D03*
D11*
X174511800Y-86511700D02*
X174511800Y-89461700D01*
X173061800Y-89461700D01*
X173061800Y-86511700D01*
X174511800Y-86511700D01*
D12*
%TO.P,R17,1*%
X173786800Y-88811700D03*
D13*
%TO.P,R17,2*%
X173786800Y-87161700D03*
%TD*%
D10*
%TO.C,R16*%
%TO.CFtp,R_0603_1608Metric*%
%TO.CVal,3.3k*%
%TO.CLbN,Resistor_SMD*%
%TO.CMnt,SMD*%
%TO.CRot,180*%
X171480000Y-87224700D03*
D11*
X172955000Y-86499700D02*
X172955000Y-87949700D01*
X170005000Y-87949700D01*
X170005000Y-86499700D01*
X172955000Y-86499700D01*
D12*
%TO.P,R16,1*%
X172305000Y-87224700D03*
D13*
%TO.P,R16,2*%
X170655000Y-87224700D03*
%TD*%
D10*
%TO.C,R22*%
%TO.CFtp,R_0603_1608Metric*%
%TO.CVal,10k*%
%TO.CLbN,Resistor_SMD*%
%TO.CMnt,SMD*%
%TO.CRot,180*%
X174548800Y-92329000D03*
D11*
X176023800Y-91604000D02*
X176023800Y-93054000D01*
X173073800Y-93054000D01*
X173073800Y-91604000D01*
X176023800Y-91604000D01*
D12*
%TO.P,R22,1*%
X175373800Y-92329000D03*
D13*
%TO.P,R22,2*%
X173723800Y-92329000D03*
%TD*%
D10*
%TO.C,C17*%
%TO.CFtp,C_0603_1608Metric*%
%TO.CVal,1uF*%
%TO.CLbN,Capacitor_SMD*%
%TO.CMnt,SMD*%
%TO.CRot,90*%
X190216000Y-83364200D03*
D11*
X190941000Y-81889200D02*
X190941000Y-84839200D01*
X189491000Y-84839200D01*
X189491000Y-81889200D01*
X190941000Y-81889200D01*
D12*
%TO.P,C17,1*%
X190216000Y-84139200D03*
D13*
%TO.P,C17,2*%
X190216000Y-82589200D03*
%TD*%
D10*
%TO.C,C6*%
%TO.CFtp,C_0603_1608Metric*%
%TO.CVal,1uF*%
%TO.CLbN,Capacitor_SMD*%
%TO.CMnt,SMD*%
%TO.CRot,180*%
X166721000Y-79745000D03*
D11*
X168196000Y-79020000D02*
X168196000Y-80470000D01*
X165246000Y-80470000D01*
X165246000Y-79020000D01*
X168196000Y-79020000D01*
D12*
%TO.P,C6,1*%
X167496000Y-79745000D03*
D13*
%TO.P,C6,2*%
X165946000Y-79745000D03*
%TD*%
D10*
%TO.C,R19*%
%TO.CFtp,R_0603_1608Metric*%
%TO.CVal,10k*%
%TO.CLbN,Resistor_SMD*%
%TO.CMnt,SMD*%
%TO.CRot,180*%
X181262200Y-82970800D03*
D11*
X182737200Y-82245800D02*
X182737200Y-83695800D01*
X179787200Y-83695800D01*
X179787200Y-82245800D01*
X182737200Y-82245800D01*
D12*
%TO.P,R19,1*%
X182087200Y-82970800D03*
D13*
%TO.P,R19,2*%
X180437200Y-82970800D03*
%TD*%
D10*
%TO.C,Q1*%
%TO.CFtp,SOT-523*%
%TO.CVal,DTC143Z*%
%TO.CLbN,Muffin_SMD*%
%TO.CMnt,SMD*%
%TO.CRot,90*%
X202458800Y-92150200D03*
D11*
X203503800Y-91005200D02*
X203503800Y-93295200D01*
X201413800Y-93295200D01*
X201413800Y-91005200D01*
X203503800Y-91005200D01*
D12*
%TO.P,Q1,1,B*%
X201958800Y-92795200D03*
D13*
%TO.P,Q1,2,E*%
X202958800Y-92795200D03*
%TO.P,Q1,3,C*%
X202458800Y-91505200D03*
%TD*%
D10*
%TO.C,D2*%
%TO.CFtp,D_SOD-323*%
%TO.CVal,1N4148WS*%
%TO.CLbN,Diode_SMD*%
%TO.CMnt,SMD*%
%TO.CRot,0*%
X192400400Y-87492000D03*
D11*
X193995400Y-86547000D02*
X193995400Y-88437000D01*
X190805400Y-88437000D01*
X190805400Y-86547000D01*
X193995400Y-86547000D01*
D12*
%TO.P,D2,1,K*%
X191350400Y-87492000D03*
D13*
%TO.P,D2,2,A*%
X193450400Y-87492000D03*
%TD*%
D10*
%TO.C,R1*%
%TO.CFtp,R_0603_1608Metric*%
%TO.CVal,100k*%
%TO.CLbN,Resistor_SMD*%
%TO.CMnt,SMD*%
%TO.CRot,180*%
X171480000Y-93878400D03*
D11*
X172955000Y-93153400D02*
X172955000Y-94603400D01*
X170005000Y-94603400D01*
X170005000Y-93153400D01*
X172955000Y-93153400D01*
D12*
%TO.P,R1,1*%
X172305000Y-93878400D03*
D13*
%TO.P,R1,2*%
X170655000Y-93878400D03*
%TD*%
D10*
%TO.C,FID1*%
%TO.CFtp,Fiducial_0.5mm_Mask1.5mm*%
%TO.CVal,Fiducial*%
%TO.CLbN,Fiducial*%
%TO.CMnt,SMD*%
%TO.CRot,0*%
X158974000Y-95874000D03*
D11*
X159224035Y-94908291D02*
X159413318Y-94978393D01*
X159584606Y-95085158D01*
X159730902Y-95224222D01*
X159846205Y-95389884D01*
X159925804Y-95575369D01*
X159966448Y-95773145D01*
X159968998Y-95874000D01*
X159966448Y-95974854D01*
X159925804Y-96172630D01*
X159846205Y-96358115D01*
X159730902Y-96523777D01*
X159584606Y-96662841D01*
X159413318Y-96769606D01*
X159224035Y-96839708D01*
X159024529Y-96870272D01*
X158822938Y-96860048D01*
X158627546Y-96809458D01*
X158446332Y-96720567D01*
X158286719Y-96597018D01*
X158155245Y-96443870D01*
X158057291Y-96267390D01*
X157996866Y-96074803D01*
X157976447Y-95874000D01*
X157996866Y-95673196D01*
X158057291Y-95480609D01*
X158155245Y-95304129D01*
X158286719Y-95150981D01*
X158446332Y-95027432D01*
X158627546Y-94938541D01*
X158822938Y-94887951D01*
X159024529Y-94877727D01*
X159224035Y-94908291D01*
D13*
%TO.P,FID1,*%
X158974000Y-95874000D03*
%TD*%
D10*
%TO.C,FID3*%
%TO.CFtp,Fiducial_0.5mm_Mask1.5mm*%
%TO.CVal,Fiducial*%
%TO.CLbN,Fiducial*%
%TO.CMnt,SMD*%
%TO.CRot,0*%
X170561000Y-96012000D03*
D11*
X170811035Y-95046291D02*
X171000318Y-95116393D01*
X171171606Y-95223158D01*
X171317902Y-95362222D01*
X171433205Y-95527884D01*
X171512804Y-95713369D01*
X171553448Y-95911145D01*
X171555998Y-96012000D01*
X171553448Y-96112854D01*
X171512804Y-96310630D01*
X171433205Y-96496115D01*
X171317902Y-96661777D01*
X171171606Y-96800841D01*
X171000318Y-96907606D01*
X170811035Y-96977708D01*
X170611529Y-97008272D01*
X170409938Y-96998048D01*
X170214546Y-96947458D01*
X170033332Y-96858567D01*
X169873719Y-96735018D01*
X169742245Y-96581870D01*
X169644291Y-96405390D01*
X169583866Y-96212803D01*
X169563447Y-96012000D01*
X169583866Y-95811196D01*
X169644291Y-95618609D01*
X169742245Y-95442129D01*
X169873719Y-95288981D01*
X170033332Y-95165432D01*
X170214546Y-95076541D01*
X170409938Y-95025951D01*
X170611529Y-95015727D01*
X170811035Y-95046291D01*
D13*
%TO.P,FID3,*%
X170561000Y-96012000D03*
%TD*%
D10*
%TO.C,R20*%
%TO.CFtp,R_0603_1608Metric*%
%TO.CVal,220*%
%TO.CLbN,Resistor_SMD*%
%TO.CMnt,SMD*%
%TO.CRot,-90*%
X188438000Y-73395000D03*
D11*
X189163000Y-71920000D02*
X189163000Y-74870000D01*
X187713000Y-74870000D01*
X187713000Y-71920000D01*
X189163000Y-71920000D01*
D12*
%TO.P,R20,1*%
X188438000Y-72570000D03*
D13*
%TO.P,R20,2*%
X188438000Y-74220000D03*
%TD*%
D10*
%TO.C,C4*%
%TO.CFtp,C_0805_2012Metric*%
%TO.CVal,22uF*%
%TO.CLbN,Capacitor_SMD*%
%TO.CMnt,SMD*%
%TO.CRot,180*%
X207234000Y-87365000D03*
D11*
X208929000Y-86390000D02*
X208929000Y-88340000D01*
X205539000Y-88340000D01*
X205539000Y-86390000D01*
X208929000Y-86390000D01*
D12*
%TO.P,C4,1*%
X208184000Y-87365000D03*
D13*
%TO.P,C4,2*%
X206284000Y-87365000D03*
%TD*%
D10*
%TO.C,L1*%
%TO.CFtp,L_1008_2520Metric*%
%TO.CVal,1.0uh*%
%TO.CLbN,Inductor_SMD*%
%TO.CMnt,SMD*%
%TO.CRot,-90*%
X204604400Y-83826200D03*
D11*
X205949400Y-81881200D02*
X205949400Y-85771200D01*
X203259400Y-85771200D01*
X203259400Y-81881200D01*
X205949400Y-81881200D01*
D12*
%TO.P,L1,1,1*%
X204604400Y-82751200D03*
D13*
%TO.P,L1,2,2*%
X204604400Y-84901200D03*
%TD*%
D10*
%TO.C,C14*%
%TO.CFtp,C_0603_1608Metric*%
%TO.CVal,0.1uF*%
%TO.CLbN,Capacitor_SMD*%
%TO.CMnt,SMD*%
%TO.CRot,180*%
X181262200Y-84494800D03*
D11*
X182737200Y-83769800D02*
X182737200Y-85219800D01*
X179787200Y-85219800D01*
X179787200Y-83769800D01*
X182737200Y-83769800D01*
D12*
%TO.P,C14,1*%
X182037200Y-84494800D03*
D13*
%TO.P,C14,2*%
X180487200Y-84494800D03*
%TD*%
D10*
%TO.C,R13*%
%TO.CFtp,R_0603_1608Metric*%
%TO.CVal,10k*%
%TO.CLbN,Resistor_SMD*%
%TO.CMnt,SMD*%
%TO.CRot,180*%
X174548800Y-90805000D03*
D11*
X176023800Y-90080000D02*
X176023800Y-91530000D01*
X173073800Y-91530000D01*
X173073800Y-90080000D01*
X176023800Y-90080000D01*
D12*
%TO.P,R13,1*%
X175373800Y-90805000D03*
D13*
%TO.P,R13,2*%
X173723800Y-90805000D03*
%TD*%
D10*
%TO.C,C18*%
%TO.CFtp,C_0402_1005Metric*%
%TO.CVal,10pF*%
%TO.CLbN,Capacitor_SMD*%
%TO.CMnt,SMD*%
%TO.CRot,90*%
X209024000Y-84342400D03*
D11*
X209479000Y-83437400D02*
X209479000Y-85247400D01*
X208569000Y-85247400D01*
X208569000Y-83437400D01*
X209479000Y-83437400D01*
D12*
%TO.P,C18,1*%
X209024000Y-84822400D03*
D13*
%TO.P,C18,2*%
X209024000Y-83862400D03*
%TD*%
D10*
%TO.C,C11*%
%TO.CFtp,C_0603_1608Metric*%
%TO.CVal,0.1uF*%
%TO.CLbN,Capacitor_SMD*%
%TO.CMnt,SMD*%
%TO.CRot,180*%
X192502000Y-85663200D03*
D11*
X193977000Y-84938200D02*
X193977000Y-86388200D01*
X191027000Y-86388200D01*
X191027000Y-84938200D01*
X193977000Y-84938200D01*
D12*
%TO.P,C11,1*%
X193277000Y-85663200D03*
D13*
%TO.P,C11,2*%
X191727000Y-85663200D03*
%TD*%
D10*
%TO.C,R18*%
%TO.CFtp,R_0603_1608Metric*%
%TO.CVal,10k*%
%TO.CLbN,Resistor_SMD*%
%TO.CMnt,SMD*%
%TO.CRot,180*%
X192502000Y-82615200D03*
D11*
X193977000Y-81890200D02*
X193977000Y-83340200D01*
X191027000Y-83340200D01*
X191027000Y-81890200D01*
X193977000Y-81890200D01*
D12*
%TO.P,R18,1*%
X193327000Y-82615200D03*
D13*
%TO.P,R18,2*%
X191677000Y-82615200D03*
%TD*%
D10*
%TO.C,D1*%
%TO.CFtp,D_SOD-323*%
%TO.CVal,1N4148WS*%
%TO.CLbN,Diode_SMD*%
%TO.CMnt,SMD*%
%TO.CRot,0*%
X192400400Y-89524000D03*
D11*
X193995400Y-88579000D02*
X193995400Y-90469000D01*
X190805400Y-90469000D01*
X190805400Y-88579000D01*
X193995400Y-88579000D01*
D12*
%TO.P,D1,1,K*%
X191350400Y-89524000D03*
D13*
%TO.P,D1,2,A*%
X193450400Y-89524000D03*
%TD*%
D10*
%TO.C,D4*%
%TO.CFtp,LED_0805_2012Metric*%
%TO.CVal,LED*%
%TO.CLbN,LED_SMD*%
%TO.CMnt,SMD*%
%TO.CRot,90*%
X190216000Y-73649000D03*
D11*
X191161000Y-71974000D02*
X191161000Y-75324000D01*
X189271000Y-75324000D01*
X189271000Y-71974000D01*
X191161000Y-71974000D01*
D12*
%TO.P,D4,1,K*%
X190216000Y-74586500D03*
D13*
%TO.P,D4,2,A*%
X190216000Y-72711500D03*
%TD*%
D10*
%TO.C,Q4*%
%TO.CFtp,SOT-523*%
%TO.CVal,DMG1012T*%
%TO.CLbN,Muffin_SMD*%
%TO.CMnt,SMD*%
%TO.CRot,0*%
X174345600Y-94132400D03*
D11*
X175490600Y-93087400D02*
X175490600Y-95177400D01*
X173200600Y-95177400D01*
X173200600Y-93087400D01*
X175490600Y-93087400D01*
D12*
%TO.P,Q4,1,G*%
X173700600Y-93632400D03*
D13*
%TO.P,Q4,2,S*%
X173700600Y-94632400D03*
%TO.P,Q4,3,D*%
X174990600Y-94132400D03*
%TD*%
D10*
%TO.C,C12*%
%TO.CFtp,C_0603_1608Metric*%
%TO.CVal,4.7uF*%
%TO.CLbN,Capacitor_SMD*%
%TO.CMnt,SMD*%
%TO.CRot,180*%
X184292800Y-82970800D03*
D11*
X185767800Y-82245800D02*
X185767800Y-83695800D01*
X182817800Y-83695800D01*
X182817800Y-82245800D01*
X185767800Y-82245800D01*
D12*
%TO.P,C12,1*%
X185067800Y-82970800D03*
D13*
%TO.P,C12,2*%
X183517800Y-82970800D03*
%TD*%
D10*
%TO.C,FID4*%
%TO.CFtp,Fiducial_0.5mm_Mask1.5mm*%
%TO.CVal,Fiducial*%
%TO.CLbN,Fiducial*%
%TO.CMnt,SMD*%
%TO.CRot,0*%
X196108800Y-76316000D03*
D11*
X196358835Y-75350291D02*
X196548118Y-75420393D01*
X196719406Y-75527158D01*
X196865702Y-75666222D01*
X196981005Y-75831884D01*
X197060604Y-76017369D01*
X197101248Y-76215145D01*
X197103798Y-76316000D01*
X197101248Y-76416854D01*
X197060604Y-76614630D01*
X196981005Y-76800115D01*
X196865702Y-76965777D01*
X196719406Y-77104841D01*
X196548118Y-77211606D01*
X196358835Y-77281708D01*
X196159329Y-77312272D01*
X195957738Y-77302048D01*
X195762346Y-77251458D01*
X195581132Y-77162567D01*
X195421519Y-77039018D01*
X195290045Y-76885870D01*
X195192091Y-76709390D01*
X195131666Y-76516803D01*
X195111247Y-76316000D01*
X195131666Y-76115196D01*
X195192091Y-75922609D01*
X195290045Y-75746129D01*
X195421519Y-75592981D01*
X195581132Y-75469432D01*
X195762346Y-75380541D01*
X195957738Y-75329951D01*
X196159329Y-75319727D01*
X196358835Y-75350291D01*
D13*
%TO.P,FID4,*%
X196108800Y-76316000D03*
%TD*%
D10*
%TO.C,J3*%
%TO.CFtp,PinHeader_1x03_P2.54mm_Horizontal*%
%TO.CVal,Conn_01x03_Pin*%
%TO.CLbN,Connector_Muffin_THT.pretty*%
%TO.CMnt,TH*%
%TO.CRot,-90*%
X210409000Y-93715000D03*
D11*
X212174000Y-91950000D02*
X212174000Y-104250000D01*
X203564000Y-104250000D01*
X203564000Y-91950000D01*
X212174000Y-91950000D01*
D12*
%TO.P,J3,1,Pin_1*%
X210409000Y-93715000D03*
D13*
%TO.P,J3,2,Pin_2*%
X207869000Y-93715000D03*
%TO.P,J3,3,Pin_3*%
X205329000Y-93715000D03*
%TD*%
D10*
%TO.C,J1*%
%TO.CFtp,BATTERY_P2+P1.27mm_Horizontal*%
%TO.CVal,Batt_conn_3p*%
%TO.CLbN,Connector_Muffin_THT.pretty*%
%TO.CMnt,TH*%
%TO.CRot,0*%
X162592000Y-91067000D03*
D11*
X169037000Y-89222000D02*
X169037000Y-97812000D01*
X160147000Y-97812000D01*
X160147000Y-89222000D01*
X169037000Y-89222000D01*
D12*
%TO.P,J1,1,VBAT*%
X162592000Y-91067000D03*
X163322000Y-93207000D03*
D13*
%TO.P,J1,2,GND*%
X164592000Y-91067000D03*
X164592000Y-93207000D03*
%TO.P,J1,3,TS*%
X165862000Y-93207000D03*
X166592000Y-91067000D03*
%TD*%
D10*
%TO.C,R3*%
%TO.CFtp,R_0603_1608Metric*%
%TO.CVal,1.8k*%
%TO.CLbN,Resistor_SMD*%
%TO.CMnt,SMD*%
%TO.CRot,90*%
X169007000Y-77459000D03*
D11*
X169732000Y-75984000D02*
X169732000Y-78934000D01*
X168282000Y-78934000D01*
X168282000Y-75984000D01*
X169732000Y-75984000D01*
D12*
%TO.P,R3,1*%
X169007000Y-78284000D03*
D13*
%TO.P,R3,2*%
X169007000Y-76634000D03*
%TD*%
D10*
%TO.C,U1*%
%TO.CFtp,RGT16*%
%TO.CVal,BQ24073RGTR*%
%TO.CLbN,Muffin_SMD*%
%TO.CMnt,SMD*%
%TO.CRot,90*%
X170442801Y-81231789D03*
D11*
X172591801Y-79082789D02*
X172591801Y-83380789D01*
X168293801Y-83380789D01*
X168293801Y-79082789D01*
X172591801Y-79082789D01*
D12*
%TO.P,U1,1,TS*%
X169692800Y-82706790D03*
D13*
%TO.P,U1,2,BAT*%
X170192801Y-82706790D03*
%TO.P,U1,3,BAT*%
X170692801Y-82706790D03*
%TO.P,U1,4,\u002ACE*%
X171192802Y-82706790D03*
%TO.P,U1,5,EN2*%
X171917802Y-81981978D03*
%TO.P,U1,6,EN1*%
X171917802Y-81481852D03*
%TO.P,U1,7,\u002APGOOD*%
X171917802Y-80981726D03*
%TO.P,U1,8,VSS*%
X171917802Y-80481600D03*
%TO.P,U1,9,\u002ACHG*%
X171192802Y-79756788D03*
%TO.P,U1,10,OUT*%
X170692801Y-79756788D03*
%TO.P,U1,11,OUT*%
X170192801Y-79756788D03*
%TO.P,U1,12,ILIM*%
X169692800Y-79756788D03*
%TO.P,U1,13,IN*%
X168967800Y-80481600D03*
%TO.P,U1,14,TMR*%
X168967800Y-80981726D03*
%TO.P,U1,15,TD*%
X168967800Y-81481852D03*
%TO.P,U1,16,ISET*%
X168967800Y-81981978D03*
%TO.P,U1,17,EPAD*%
X170049101Y-81625489D03*
X170836501Y-81625489D03*
X170442801Y-81231789D03*
X170049101Y-80838089D03*
X170836501Y-80838089D03*
%TD*%
D10*
%TO.C,R10*%
%TO.CFtp,R_0603_1608Metric*%
%TO.CVal,5.1k*%
%TO.CLbN,Resistor_SMD*%
%TO.CMnt,SMD*%
%TO.CRot,90*%
X170531000Y-74411000D03*
D11*
X171256000Y-72936000D02*
X171256000Y-75886000D01*
X169806000Y-75886000D01*
X169806000Y-72936000D01*
X171256000Y-72936000D01*
D12*
%TO.P,R10,1*%
X170531000Y-75236000D03*
D13*
%TO.P,R10,2*%
X170531000Y-73586000D03*
%TD*%
D10*
%TO.C,R2*%
%TO.CFtp,R_0402_1005Metric*%
%TO.CVal,100k*%
%TO.CLbN,Resistor_SMD*%
%TO.CMnt,SMD*%
%TO.CRot,90*%
X210040000Y-82437400D03*
D11*
X210505000Y-81512400D02*
X210505000Y-83362400D01*
X209575000Y-83362400D01*
X209575000Y-81512400D01*
X210505000Y-81512400D01*
D12*
%TO.P,R2,1*%
X210040000Y-82947400D03*
D13*
%TO.P,R2,2*%
X210040000Y-81927400D03*
%TD*%
D10*
%TO.C,U3*%
%TO.CFtp,X1SON-2_L1.0-W0.6-P0.65-BI*%
%TO.CVal,TPD1E10B06DPYR*%
%TO.CLbN,Muffin_SMD*%
%TO.CMnt,SMD*%
%TO.CRot,90*%
X204186000Y-90921000D03*
D11*
X204731000Y-89976000D02*
X204731000Y-91866000D01*
X203641000Y-91866000D01*
X203641000Y-89976000D01*
X204731000Y-89976000D01*
D12*
%TO.P,U3,1*%
X204186000Y-91421000D03*
D13*
%TO.P,U3,2*%
X204186000Y-90421000D03*
%TD*%
D10*
%TO.C,R5*%
%TO.CFtp,R_0603_1608Metric*%
%TO.CVal,3.3k*%
%TO.CLbN,Resistor_SMD*%
%TO.CMnt,SMD*%
%TO.CRot,0*%
X166721000Y-82793000D03*
D11*
X168196000Y-82068000D02*
X168196000Y-83518000D01*
X165246000Y-83518000D01*
X165246000Y-82068000D01*
X168196000Y-82068000D01*
D12*
%TO.P,R5,1*%
X165896000Y-82793000D03*
D13*
%TO.P,R5,2*%
X167546000Y-82793000D03*
%TD*%
D14*
X210000000Y-71000000D02*
G75*
G02*
X212000000Y-73000000I0J-2000000D01*
G01*
X212000000Y-73000000D02*
X212000000Y-97779000D01*
X212000000Y-97779000D02*
X211806000Y-98000000D01*
X157000000Y-96000000D02*
X157000000Y-73000000D01*
X157000000Y-73000000D02*
G75*
G02*
X159000000Y-71000000I2000000J0D01*
G01*
X159000000Y-71000000D02*
X210000000Y-71000000D01*
X211806000Y-98000000D02*
X159000000Y-98000000D01*
X159000000Y-98000000D02*
G75*
G02*
X157000000Y-96000000I0J2000000D01*
G01*
M02*
