%TF.GenerationSoftware,KiCad,Pcbnew,9.0.7-1.fc43*%
%TF.CreationDate,2026-03-16T00:34:45+02:00*%
%TF.ProjectId,DRP.004,4452502e-3030-4342-9e6b-696361645f70,v4.3*%
%TF.SameCoordinates,Original*%
%TF.FileFunction,Component,L1,Top*%
%TF.FilePolarity,Positive*%
%FSLAX46Y46*%
G04 Gerber Fmt 4.6, Leading zero omitted, Abs format (unit mm)*
G04 Created by KiCad (PCBNEW 9.0.7-1.fc43) date 2026-03-16 00:34:45*
%MOMM*%
%LPD*%
G01*
G04 APERTURE LIST*
%TA.AperFunction,ComponentMain*%
%ADD10C,0.300000*%
%TD*%
%TA.AperFunction,ComponentOutline,Courtyard*%
%ADD11C,0.100000*%
%TD*%
%TA.AperFunction,ComponentPin*%
%ADD12P,0.360000X4X0.000000*%
%TD*%
%TA.AperFunction,ComponentPin*%
%ADD13C,0.100000*%
%TD*%
%TA.AperFunction,Profile*%
%ADD14C,0.050000*%
%TD*%
G04 APERTURE END LIST*
D10*
%TO.C,C8*%
%TO.CFtp,C_0603_1608Metric*%
%TO.CVal,4.7uF*%
%TO.CLbN,Capacitor_SMD*%
%TO.CMnt,SMD*%
%TO.CRot,0*%
X165643637Y-87643763D03*
D11*
X167118637Y-86918763D02*
X167118637Y-88368763D01*
X164168637Y-88368763D01*
X164168637Y-86918763D01*
X167118637Y-86918763D01*
D12*
%TO.P,C8,1*%
X164868637Y-87643763D03*
D13*
%TO.P,C8,2*%
X166418637Y-87643763D03*
%TD*%
D10*
%TO.C,TH1*%
%TO.CFtp,R_0402_1005Metric*%
%TO.CVal,10k NTC*%
%TO.CLbN,Resistor_SMD*%
%TO.CMnt,SMD*%
%TO.CRot,180*%
X159393637Y-87200000D03*
D11*
X160318637Y-86735000D02*
X160318637Y-87665000D01*
X158468637Y-87665000D01*
X158468637Y-86735000D01*
X160318637Y-86735000D01*
D12*
%TO.P,TH1,1*%
X159903637Y-87200000D03*
D13*
%TO.P,TH1,2*%
X158883637Y-87200000D03*
%TD*%
D10*
%TO.C,C7*%
%TO.CFtp,C_0603_1608Metric*%
%TO.CVal,0.1uF*%
%TO.CLbN,Capacitor_SMD*%
%TO.CMnt,SMD*%
%TO.CRot,0*%
X174900000Y-76600000D03*
D11*
X176375000Y-75875000D02*
X176375000Y-77325000D01*
X173425000Y-77325000D01*
X173425000Y-75875000D01*
X176375000Y-75875000D01*
D12*
%TO.P,C7,1*%
X174125000Y-76600000D03*
D13*
%TO.P,C7,2*%
X175675000Y-76600000D03*
%TD*%
D10*
%TO.C,R9*%
%TO.CFtp,R_0603_1608Metric*%
%TO.CVal,5.1k*%
%TO.CLbN,Resistor_SMD*%
%TO.CMnt,SMD*%
%TO.CRot,180*%
X192382800Y-89500000D03*
D11*
X193857800Y-88775000D02*
X193857800Y-90225000D01*
X190907800Y-90225000D01*
X190907800Y-88775000D01*
X193857800Y-88775000D01*
D12*
%TO.P,R9,1*%
X193207800Y-89500000D03*
D13*
%TO.P,R9,2*%
X191557800Y-89500000D03*
%TD*%
D10*
%TO.C,U6*%
%TO.CFtp,QFN-28_4x4mm_P0.5mm*%
%TO.CVal,STM32G031G8Ux*%
%TO.CLbN,Muffin_SMD*%
%TO.CMnt,SMD*%
%TO.CRot,-90*%
X176000000Y-86187200D03*
D11*
X178625000Y-83562200D02*
X178625000Y-88812200D01*
X173375000Y-88812200D01*
X173375000Y-83562200D01*
X178625000Y-83562200D01*
D12*
%TO.P,U6,1,PC14*%
X177500000Y-84189700D03*
D13*
%TO.P,U6,2,PC15*%
X177000000Y-84249700D03*
%TO.P,U6,3,VDD*%
X176500000Y-84249700D03*
%TO.P,U6,4,VSS*%
X176000000Y-84249700D03*
%TO.P,U6,5,PF2*%
X175500000Y-84249700D03*
%TO.P,U6,6,PA0*%
X175000000Y-84249700D03*
%TO.P,U6,7,PA1*%
X174500000Y-84189700D03*
%TO.P,U6,8,PA2*%
X174002500Y-84687200D03*
%TO.P,U6,9,PA3*%
X174062500Y-85187200D03*
%TO.P,U6,10,ADC1_IN4*%
X174062500Y-85687200D03*
%TO.P,U6,11,PA5*%
X174062500Y-86187200D03*
%TO.P,U6,12,PA6*%
X174062500Y-86687200D03*
%TO.P,U6,13,PA7*%
X174062500Y-87187200D03*
%TO.P,U6,14,PB0*%
X174002500Y-87687200D03*
%TO.P,U6,15,PB1*%
X174500000Y-88184700D03*
%TO.P,U6,16,TIM1_CH1*%
X175000000Y-88124700D03*
%TO.P,U6,17,PC6*%
X175500000Y-88124700D03*
%TO.P,U6,18,TIM1_CH2 (PA9)*%
X176000000Y-88124700D03*
%TO.P,U6,19,ADC1_IN16 (PA12)*%
X176500000Y-88124700D03*
%TO.P,U6,20,SYS_SWDIO*%
X177000000Y-88124700D03*
%TO.P,U6,21,SYS_SWCLK*%
X177500000Y-88184700D03*
%TO.P,U6,22,PA15*%
X177997500Y-87687200D03*
%TO.P,U6,23,PB3*%
X177937500Y-87187200D03*
%TO.P,U6,24,PB4*%
X177937500Y-86687200D03*
%TO.P,U6,25,TIM3_CH2*%
X177937500Y-86187200D03*
%TO.P,U6,26,USART1_TX*%
X177937500Y-85687200D03*
%TO.P,U6,27,USART1_RX*%
X177937500Y-85187200D03*
%TO.P,U6,28,PB8*%
X177997500Y-84687200D03*
%TD*%
D10*
%TO.C,FID2*%
%TO.CFtp,Fiducial_0.5mm_Mask1.5mm*%
%TO.CVal,Fiducial*%
%TO.CLbN,Fiducial*%
%TO.CMnt,SMD*%
%TO.CRot,0*%
X180500000Y-75750000D03*
D11*
X180750035Y-74784291D02*
X180939318Y-74854393D01*
X181110606Y-74961158D01*
X181256902Y-75100222D01*
X181372205Y-75265884D01*
X181451804Y-75451369D01*
X181492448Y-75649145D01*
X181494998Y-75750000D01*
X181492448Y-75850854D01*
X181451804Y-76048630D01*
X181372205Y-76234115D01*
X181256902Y-76399777D01*
X181110606Y-76538841D01*
X180939318Y-76645606D01*
X180750035Y-76715708D01*
X180550529Y-76746272D01*
X180348938Y-76736048D01*
X180153546Y-76685458D01*
X179972332Y-76596567D01*
X179812719Y-76473018D01*
X179681245Y-76319870D01*
X179583291Y-76143390D01*
X179522866Y-75950803D01*
X179502447Y-75750000D01*
X179522866Y-75549196D01*
X179583291Y-75356609D01*
X179681245Y-75180129D01*
X179812719Y-75026981D01*
X179972332Y-74903432D01*
X180153546Y-74814541D01*
X180348938Y-74763951D01*
X180550529Y-74753727D01*
X180750035Y-74784291D01*
D13*
%TO.P,FID2,*%
X180500000Y-75750000D03*
%TD*%
D10*
%TO.C,D5*%
%TO.CFtp,LED_0805_2012Metric*%
%TO.CVal,LED*%
%TO.CLbN,LED_SMD*%
%TO.CMnt,SMD*%
%TO.CRot,90*%
X190023665Y-73312500D03*
D11*
X190968665Y-71637500D02*
X190968665Y-74987500D01*
X189078665Y-74987500D01*
X189078665Y-71637500D01*
X190968665Y-71637500D01*
D12*
%TO.P,D5,1,K*%
X190023665Y-74250000D03*
D13*
%TO.P,D5,2,A*%
X190023665Y-72375000D03*
%TD*%
D10*
%TO.C,Q3*%
%TO.CFtp,SOT-523*%
%TO.CVal,DTC143Z*%
%TO.CLbN,Muffin_SMD*%
%TO.CMnt,SMD*%
%TO.CRot,0*%
X197145000Y-76500000D03*
D11*
X198290000Y-75455000D02*
X198290000Y-77545000D01*
X196000000Y-77545000D01*
X196000000Y-75455000D01*
X198290000Y-75455000D01*
D12*
%TO.P,Q3,1,B*%
X196500000Y-76000000D03*
D13*
%TO.P,Q3,2,E*%
X196500000Y-77000000D03*
%TO.P,Q3,3,C*%
X197790000Y-76500000D03*
%TD*%
D10*
%TO.C,C16*%
%TO.CFtp,C_0603_1608Metric*%
%TO.CVal,1nF*%
%TO.CLbN,Capacitor_SMD*%
%TO.CMnt,SMD*%
%TO.CRot,180*%
X173250000Y-91000000D03*
D11*
X174725000Y-90275000D02*
X174725000Y-91725000D01*
X171775000Y-91725000D01*
X171775000Y-90275000D01*
X174725000Y-90275000D01*
D12*
%TO.P,C16,1*%
X174025000Y-91000000D03*
D13*
%TO.P,C16,2*%
X172475000Y-91000000D03*
%TD*%
D10*
%TO.C,U2*%
%TO.CFtp,X1SON-2_L1.0-W0.6-P0.65-BI*%
%TO.CVal,TPD1E10B06DPYR*%
%TO.CLbN,Muffin_SMD*%
%TO.CMnt,SMD*%
%TO.CRot,0*%
X195462800Y-90967976D03*
D11*
X196407800Y-90422976D02*
X196407800Y-91512976D01*
X194517800Y-91512976D01*
X194517800Y-90422976D01*
X196407800Y-90422976D01*
D12*
%TO.P,U2,1*%
X194962800Y-90967976D03*
D13*
%TO.P,U2,2*%
X195962800Y-90967976D03*
%TD*%
D10*
%TO.C,D3*%
%TO.CFtp,LED_0805_2012Metric*%
%TO.CVal,LED*%
%TO.CLbN,LED_SMD*%
%TO.CMnt,SMD*%
%TO.CRot,90*%
X182939639Y-73312500D03*
D11*
X183884639Y-71637500D02*
X183884639Y-74987500D01*
X181994639Y-74987500D01*
X181994639Y-71637500D01*
X183884639Y-71637500D01*
D12*
%TO.P,D3,1,K*%
X182939639Y-74250000D03*
D13*
%TO.P,D3,2,A*%
X182939639Y-72375000D03*
%TD*%
D10*
%TO.C,C13*%
%TO.CFtp,C_0603_1608Metric*%
%TO.CVal,0.1uF*%
%TO.CLbN,Capacitor_SMD*%
%TO.CMnt,SMD*%
%TO.CRot,180*%
X177750000Y-82500000D03*
D11*
X179225000Y-81775000D02*
X179225000Y-83225000D01*
X176275000Y-83225000D01*
X176275000Y-81775000D01*
X179225000Y-81775000D01*
D12*
%TO.P,C13,1*%
X178525000Y-82500000D03*
D13*
%TO.P,C13,2*%
X176975000Y-82500000D03*
%TD*%
D10*
%TO.C,Q6*%
%TO.CFtp,SOT-523*%
%TO.CVal,DTC143Z*%
%TO.CLbN,Muffin_SMD*%
%TO.CMnt,SMD*%
%TO.CRot,0*%
X188000000Y-90750000D03*
D11*
X189145000Y-89705000D02*
X189145000Y-91795000D01*
X186855000Y-91795000D01*
X186855000Y-89705000D01*
X189145000Y-89705000D01*
D12*
%TO.P,Q6,1,B*%
X187355000Y-90250000D03*
D13*
%TO.P,Q6,2,E*%
X187355000Y-91250000D03*
%TO.P,Q6,3,C*%
X188645000Y-90750000D03*
%TD*%
D10*
%TO.C,R4*%
%TO.CFtp,R_0603_1608Metric*%
%TO.CVal,33k*%
%TO.CLbN,Resistor_SMD*%
%TO.CMnt,SMD*%
%TO.CRot,180*%
X159393637Y-84393763D03*
D11*
X160868637Y-83668763D02*
X160868637Y-85118763D01*
X157918637Y-85118763D01*
X157918637Y-83668763D01*
X160868637Y-83668763D01*
D12*
%TO.P,R4,1*%
X160218637Y-84393763D03*
D13*
%TO.P,R4,2*%
X158568637Y-84393763D03*
%TD*%
D10*
%TO.C,U4*%
%TO.CFtp,X1SON-2_L1.0-W0.6-P0.65-BI*%
%TO.CVal,TPD1E10B06DPYR*%
%TO.CLbN,Muffin_SMD*%
%TO.CMnt,SMD*%
%TO.CRot,180*%
X160750000Y-79500000D03*
D11*
X161695000Y-78955000D02*
X161695000Y-80045000D01*
X159805000Y-80045000D01*
X159805000Y-78955000D01*
X161695000Y-78955000D01*
D12*
%TO.P,U4,1*%
X161250000Y-79500000D03*
D13*
%TO.P,U4,2*%
X160250000Y-79500000D03*
%TD*%
D10*
%TO.C,C5*%
%TO.CFtp,C_0603_1608Metric*%
%TO.CVal,1uF*%
%TO.CLbN,Capacitor_SMD*%
%TO.CMnt,SMD*%
%TO.CRot,90*%
X185723500Y-80251500D03*
D11*
X186448500Y-78776500D02*
X186448500Y-81726500D01*
X184998500Y-81726500D01*
X184998500Y-78776500D01*
X186448500Y-78776500D01*
D12*
%TO.P,C5,1*%
X185723500Y-81026500D03*
D13*
%TO.P,C5,2*%
X185723500Y-79476500D03*
%TD*%
D10*
%TO.C,C3*%
%TO.CFtp,C_0805_2012Metric*%
%TO.CVal,22uF*%
%TO.CLbN,Capacitor_SMD*%
%TO.CMnt,SMD*%
%TO.CRot,180*%
X193837200Y-87706376D03*
D11*
X195532200Y-86731376D02*
X195532200Y-88681376D01*
X192142200Y-88681376D01*
X192142200Y-86731376D01*
X195532200Y-86731376D01*
D12*
%TO.P,C3,1*%
X194787200Y-87706376D03*
D13*
%TO.P,C3,2*%
X192887200Y-87706376D03*
%TD*%
D10*
%TO.C,C9*%
%TO.CFtp,C_0603_1608Metric*%
%TO.CVal,1nF*%
%TO.CLbN,Capacitor_SMD*%
%TO.CMnt,SMD*%
%TO.CRot,180*%
X170250000Y-85000000D03*
D11*
X171725000Y-84275000D02*
X171725000Y-85725000D01*
X168775000Y-85725000D01*
X168775000Y-84275000D01*
X171725000Y-84275000D01*
D12*
%TO.P,C9,1*%
X171025000Y-85000000D03*
D13*
%TO.P,C9,2*%
X169475000Y-85000000D03*
%TD*%
D10*
%TO.C,C1*%
%TO.CFtp,C_0603_1608Metric*%
%TO.CVal,4.7uF*%
%TO.CLbN,Capacitor_SMD*%
%TO.CMnt,SMD*%
%TO.CRot,90*%
X165000000Y-81000000D03*
D11*
X165725000Y-79525000D02*
X165725000Y-82475000D01*
X164275000Y-82475000D01*
X164275000Y-79525000D01*
X165725000Y-79525000D01*
D12*
%TO.P,C1,1*%
X165000000Y-81775000D03*
D13*
%TO.P,C1,2*%
X165000000Y-80225000D03*
%TD*%
D10*
%TO.C,J6*%
%TO.CFtp,Molex_PicoBlade_53048-0310_1x03_P1.25mm_Horizontal*%
%TO.CVal,Conn_01x03_Pin*%
%TO.CLbN,Connector_Muffin_THT.pretty*%
%TO.CMnt,TH*%
%TO.CRot,0*%
X169750000Y-93187500D03*
D11*
X174245000Y-91942500D02*
X174245000Y-98132500D01*
X167755000Y-98132500D01*
X167755000Y-91942500D01*
X174245000Y-91942500D01*
D12*
%TO.P,J6,1,Pin_1*%
X169750000Y-93187500D03*
D13*
%TO.P,J6,2,Pin_2*%
X171000000Y-93187500D03*
%TO.P,J6,3,Pin_3*%
X172250000Y-93187500D03*
%TD*%
D10*
%TO.C,C2*%
%TO.CFtp,C_0805_2012Metric*%
%TO.CVal,10uF*%
%TO.CLbN,Capacitor_SMD*%
%TO.CMnt,SMD*%
%TO.CRot,0*%
X194384000Y-80010176D03*
D11*
X196079000Y-79035176D02*
X196079000Y-80985176D01*
X192689000Y-80985176D01*
X192689000Y-79035176D01*
X196079000Y-79035176D01*
D12*
%TO.P,C2,1*%
X193434000Y-80010176D03*
D13*
%TO.P,C2,2*%
X195334000Y-80010176D03*
%TD*%
D10*
%TO.C,SW2*%
%TO.CFtp,SW_Push_1P1T-MP_NO_Horizontal_Alps_SKRTLAE010*%
%TO.CVal,SW_Push*%
%TO.CLbN,Muffin_SMD*%
%TO.CMnt,SMD*%
%TO.CRot,180*%
X195500000Y-73000000D03*
D11*
X198325000Y-70705000D02*
X198325000Y-75045000D01*
X192675000Y-75045000D01*
X192675000Y-70705000D01*
X198325000Y-70705000D01*
D12*
%TO.P,SW2,1,1*%
X196725000Y-74100000D03*
X194275000Y-74100000D03*
D13*
%TO.P,SW2,*%
X197625000Y-73000000D03*
X193375000Y-73000000D03*
%TO.P,SW2,2,2*%
X195500000Y-73900000D03*
%TO.P,SW2,SH,B*%
X197350000Y-71925000D03*
X193650000Y-71925000D03*
%TD*%
D10*
%TO.C,J2*%
%TO.CFtp,USB_C_Receptacle_GCT_USB4125-xx-x-0190_6P_TopMnt_Horizontal*%
%TO.CVal,USB_C_Receptacle_PowerOnly_6P*%
%TO.CLbN,Connector_USB*%
%TO.CMnt,SMD*%
%TO.CRot,180*%
X162850000Y-74400000D03*
D11*
X168215000Y-70505000D02*
X168215000Y-78745000D01*
X157485000Y-78745000D01*
X157485000Y-70505000D01*
X168215000Y-70505000D01*
D13*
%TO.P,J2,A5,CC1*%
X163350000Y-77480000D03*
%TO.P,J2,A9,VBUS*%
X161330000Y-77480000D03*
%TO.P,J2,A12,GND*%
X160100000Y-77480000D03*
%TO.P,J2,B5,CC2*%
X162350000Y-77480000D03*
%TO.P,J2,B9,VBUS*%
X164370000Y-77480000D03*
%TO.P,J2,B12,GND*%
X165600000Y-77480000D03*
%TO.P,J2,S1,SHIELD*%
X167170000Y-77400000D03*
X167170000Y-73600000D03*
X158530000Y-77400000D03*
X158530000Y-73600000D03*
%TD*%
D10*
%TO.C,R21*%
%TO.CFtp,R_0603_1608Metric*%
%TO.CVal,3.3k*%
%TO.CLbN,Resistor_SMD*%
%TO.CMnt,SMD*%
%TO.CRot,-90*%
X188233802Y-72912500D03*
D11*
X188958802Y-71437500D02*
X188958802Y-74387500D01*
X187508802Y-74387500D01*
X187508802Y-71437500D01*
X188958802Y-71437500D01*
D12*
%TO.P,R21,1*%
X188233802Y-72087500D03*
D13*
%TO.P,R21,2*%
X188233802Y-73737500D03*
%TD*%
D10*
%TO.C,U7*%
%TO.CFtp,SOT-23-5*%
%TO.CVal,AP2112K-1.8*%
%TO.CLbN,Package_TO_SOT_SMD*%
%TO.CMnt,SMD*%
%TO.CRot,180*%
X182850000Y-80251500D03*
D11*
X183895000Y-78556500D02*
X183895000Y-78756500D01*
X184895000Y-78756500D01*
X184895000Y-81746500D01*
X183895000Y-81746500D01*
X183895000Y-81946500D01*
X181805000Y-81946500D01*
X181805000Y-81746500D01*
X180805000Y-81746500D01*
X180805000Y-80646500D01*
X181805000Y-80646500D01*
X181805000Y-79856500D01*
X180805000Y-79856500D01*
X180805000Y-78756500D01*
X181805000Y-78756500D01*
X181805000Y-78556500D01*
X183895000Y-78556500D01*
D12*
%TO.P,U7,1,VIN*%
X183987500Y-81201500D03*
D13*
%TO.P,U7,2,GND*%
X183987500Y-80251500D03*
%TO.P,U7,3,EN*%
X183987500Y-79301500D03*
%TO.P,U7,4,NC*%
X181712500Y-79301500D03*
%TO.P,U7,5,VOUT*%
X181712500Y-81201500D03*
%TD*%
D10*
%TO.C,R7*%
%TO.CFtp,R_0603_1608Metric*%
%TO.CVal,100*%
%TO.CLbN,Resistor_SMD*%
%TO.CMnt,SMD*%
%TO.CRot,90*%
X190047200Y-90250000D03*
D11*
X190772200Y-88775000D02*
X190772200Y-91725000D01*
X189322200Y-91725000D01*
X189322200Y-88775000D01*
X190772200Y-88775000D01*
D12*
%TO.P,R7,1*%
X190047200Y-91075000D03*
D13*
%TO.P,R7,2*%
X190047200Y-89425000D03*
%TD*%
D10*
%TO.C,R23*%
%TO.CFtp,R_0603_1608Metric*%
%TO.CVal,3.3k*%
%TO.CLbN,Resistor_SMD*%
%TO.CMnt,SMD*%
%TO.CRot,-90*%
X191821091Y-72912500D03*
D11*
X192546091Y-71437500D02*
X192546091Y-74387500D01*
X191096091Y-74387500D01*
X191096091Y-71437500D01*
X192546091Y-71437500D01*
D12*
%TO.P,R23,1*%
X191821091Y-72087500D03*
D13*
%TO.P,R23,2*%
X191821091Y-73737500D03*
%TD*%
D10*
%TO.C,R6*%
%TO.CFtp,R_0402_1005Metric*%
%TO.CVal,750k*%
%TO.CLbN,Resistor_SMD*%
%TO.CMnt,SMD*%
%TO.CRot,90*%
X196732800Y-82677176D03*
D11*
X197197800Y-81752176D02*
X197197800Y-83602176D01*
X196267800Y-83602176D01*
X196267800Y-81752176D01*
X197197800Y-81752176D01*
D12*
%TO.P,R6,1*%
X196732800Y-83187176D03*
D13*
%TO.P,R6,2*%
X196732800Y-82167176D03*
%TD*%
D10*
%TO.C,U5*%
%TO.CFtp,RWU0007A*%
%TO.CVal,TPS61022RWUR*%
%TO.CLbN,Muffin_SMD*%
%TO.CMnt,SMD*%
%TO.CRot,90*%
X193938800Y-83093376D03*
D11*
X195183800Y-81648376D02*
X195183800Y-84538376D01*
X192693800Y-84538376D01*
X192693800Y-81648376D01*
X195183800Y-81648376D01*
D12*
%TO.P,U5,1,GND*%
X193388800Y-83718376D03*
D13*
%TO.P,U5,2,SW*%
X193938800Y-83568376D03*
%TO.P,U5,3,VOUT*%
X194488800Y-83718376D03*
%TO.P,U5,4,FB*%
X194688800Y-82118376D03*
%TO.P,U5,5,EN*%
X194188800Y-82118376D03*
%TO.P,U5,6,MODE*%
X193688800Y-82118376D03*
%TO.P,U5,7,VIN*%
X193188800Y-82118376D03*
%TD*%
D10*
%TO.C,C10*%
%TO.CFtp,C_0603_1608Metric*%
%TO.CVal,0.1uF*%
%TO.CLbN,Capacitor_SMD*%
%TO.CMnt,SMD*%
%TO.CRot,-90*%
X180000000Y-80264000D03*
D11*
X180725000Y-78789000D02*
X180725000Y-81739000D01*
X179275000Y-81739000D01*
X179275000Y-78789000D01*
X180725000Y-78789000D01*
D12*
%TO.P,C10,1*%
X180000000Y-79489000D03*
D13*
%TO.P,C10,2*%
X180000000Y-81039000D03*
%TD*%
D10*
%TO.C,D1*%
%TO.CFtp,D_SOD-323*%
%TO.CVal,1N4148WS*%
%TO.CLbN,Diode_SMD*%
%TO.CMnt,SMD*%
%TO.CRot,-90*%
X172250000Y-80289000D03*
D11*
X173195000Y-78694000D02*
X173195000Y-81884000D01*
X171305000Y-81884000D01*
X171305000Y-78694000D01*
X173195000Y-78694000D01*
D12*
%TO.P,D1,1,K*%
X172250000Y-79239000D03*
D13*
%TO.P,D1,2,A*%
X172250000Y-81339000D03*
%TD*%
D10*
%TO.C,R11*%
%TO.CFtp,R_0603_1608Metric*%
%TO.CVal,5.1k*%
%TO.CLbN,Resistor_SMD*%
%TO.CMnt,SMD*%
%TO.CRot,180*%
X169800000Y-75200000D03*
D11*
X171275000Y-74475000D02*
X171275000Y-75925000D01*
X168325000Y-75925000D01*
X168325000Y-74475000D01*
X171275000Y-74475000D01*
D12*
%TO.P,R11,1*%
X170625000Y-75200000D03*
D13*
%TO.P,R11,2*%
X168975000Y-75200000D03*
%TD*%
D10*
%TO.C,R17*%
%TO.CFtp,R_0603_1608Metric*%
%TO.CVal,10k*%
%TO.CLbN,Resistor_SMD*%
%TO.CMnt,SMD*%
%TO.CRot,0*%
X170250000Y-86500000D03*
D11*
X171725000Y-85775000D02*
X171725000Y-87225000D01*
X168775000Y-87225000D01*
X168775000Y-85775000D01*
X171725000Y-85775000D01*
D12*
%TO.P,R17,1*%
X169425000Y-86500000D03*
D13*
%TO.P,R17,2*%
X171075000Y-86500000D03*
%TD*%
D10*
%TO.C,R16*%
%TO.CFtp,R_0603_1608Metric*%
%TO.CVal,3.3k*%
%TO.CLbN,Resistor_SMD*%
%TO.CMnt,SMD*%
%TO.CRot,180*%
X170250000Y-88000000D03*
D11*
X171725000Y-87275000D02*
X171725000Y-88725000D01*
X168775000Y-88725000D01*
X168775000Y-87275000D01*
X171725000Y-87275000D01*
D12*
%TO.P,R16,1*%
X171075000Y-88000000D03*
D13*
%TO.P,R16,2*%
X169425000Y-88000000D03*
%TD*%
D10*
%TO.C,R22*%
%TO.CFtp,R_0603_1608Metric*%
%TO.CVal,10k*%
%TO.CLbN,Resistor_SMD*%
%TO.CMnt,SMD*%
%TO.CRot,180*%
X170250000Y-91000000D03*
D11*
X171725000Y-90275000D02*
X171725000Y-91725000D01*
X168775000Y-91725000D01*
X168775000Y-90275000D01*
X171725000Y-90275000D01*
D12*
%TO.P,R22,1*%
X171075000Y-91000000D03*
D13*
%TO.P,R22,2*%
X169425000Y-91000000D03*
%TD*%
D10*
%TO.C,C17*%
%TO.CFtp,C_0603_1608Metric*%
%TO.CVal,1uF*%
%TO.CLbN,Capacitor_SMD*%
%TO.CMnt,SMD*%
%TO.CRot,0*%
X182250000Y-82789000D03*
D11*
X183725000Y-82064000D02*
X183725000Y-83514000D01*
X180775000Y-83514000D01*
X180775000Y-82064000D01*
X183725000Y-82064000D01*
D12*
%TO.P,C17,1*%
X181475000Y-82789000D03*
D13*
%TO.P,C17,2*%
X183025000Y-82789000D03*
%TD*%
D10*
%TO.C,Q1*%
%TO.CFtp,SOT-23*%
%TO.CVal,AO3400A*%
%TO.CLbN,Package_TO_SOT_SMD*%
%TO.CMnt,SMD*%
%TO.CRot,180*%
X166250000Y-90250000D03*
D11*
X167145000Y-88555000D02*
X167145000Y-88755000D01*
X168175000Y-88755000D01*
X168175000Y-89855000D01*
X167145000Y-89855000D01*
X167145000Y-90645000D01*
X168175000Y-90645000D01*
X168175000Y-91745000D01*
X167145000Y-91745000D01*
X167145000Y-91945000D01*
X165355000Y-91945000D01*
X165355000Y-90795000D01*
X164325000Y-90795000D01*
X164325000Y-89705000D01*
X165355000Y-89705000D01*
X165355000Y-88555000D01*
X167145000Y-88555000D01*
D12*
%TO.P,Q1,1,G*%
X167187500Y-91200000D03*
D13*
%TO.P,Q1,2,S*%
X167187500Y-89300000D03*
%TO.P,Q1,3,D*%
X165312500Y-90250000D03*
%TD*%
D10*
%TO.C,C6*%
%TO.CFtp,C_0603_1608Metric*%
%TO.CVal,1uF*%
%TO.CLbN,Capacitor_SMD*%
%TO.CMnt,SMD*%
%TO.CRot,-90*%
X161950899Y-84411911D03*
D11*
X162675899Y-82936911D02*
X162675899Y-85886911D01*
X161225899Y-85886911D01*
X161225899Y-82936911D01*
X162675899Y-82936911D01*
D12*
%TO.P,C6,1*%
X161950899Y-83636911D03*
D13*
%TO.P,C6,2*%
X161950899Y-85186911D03*
%TD*%
D10*
%TO.C,R19*%
%TO.CFtp,R_0603_1608Metric*%
%TO.CVal,10k*%
%TO.CLbN,Resistor_SMD*%
%TO.CMnt,SMD*%
%TO.CRot,0*%
X174750000Y-81000000D03*
D11*
X176225000Y-80275000D02*
X176225000Y-81725000D01*
X173275000Y-81725000D01*
X173275000Y-80275000D01*
X176225000Y-80275000D01*
D12*
%TO.P,R19,1*%
X173925000Y-81000000D03*
D13*
%TO.P,R19,2*%
X175575000Y-81000000D03*
%TD*%
D10*
%TO.C,R1*%
%TO.CFtp,R_0603_1608Metric*%
%TO.CVal,10k*%
%TO.CLbN,Resistor_SMD*%
%TO.CMnt,SMD*%
%TO.CRot,180*%
X170250000Y-89500000D03*
D11*
X171725000Y-88775000D02*
X171725000Y-90225000D01*
X168775000Y-90225000D01*
X168775000Y-88775000D01*
X171725000Y-88775000D01*
D12*
%TO.P,R1,1*%
X171075000Y-89500000D03*
D13*
%TO.P,R1,2*%
X169425000Y-89500000D03*
%TD*%
D10*
%TO.C,FID1*%
%TO.CFtp,Fiducial_0.5mm_Mask1.5mm*%
%TO.CVal,Fiducial*%
%TO.CLbN,Fiducial*%
%TO.CMnt,SMD*%
%TO.CRot,0*%
X186000000Y-82750000D03*
D11*
X186250035Y-81784291D02*
X186439318Y-81854393D01*
X186610606Y-81961158D01*
X186756902Y-82100222D01*
X186872205Y-82265884D01*
X186951804Y-82451369D01*
X186992448Y-82649145D01*
X186994998Y-82750000D01*
X186992448Y-82850854D01*
X186951804Y-83048630D01*
X186872205Y-83234115D01*
X186756902Y-83399777D01*
X186610606Y-83538841D01*
X186439318Y-83645606D01*
X186250035Y-83715708D01*
X186050529Y-83746272D01*
X185848938Y-83736048D01*
X185653546Y-83685458D01*
X185472332Y-83596567D01*
X185312719Y-83473018D01*
X185181245Y-83319870D01*
X185083291Y-83143390D01*
X185022866Y-82950803D01*
X185002447Y-82750000D01*
X185022866Y-82549196D01*
X185083291Y-82356609D01*
X185181245Y-82180129D01*
X185312719Y-82026981D01*
X185472332Y-81903432D01*
X185653546Y-81814541D01*
X185848938Y-81763951D01*
X186050529Y-81753727D01*
X186250035Y-81784291D01*
D13*
%TO.P,FID1,*%
X186000000Y-82750000D03*
%TD*%
D10*
%TO.C,FID3*%
%TO.CFtp,Fiducial_0.5mm_Mask1.5mm*%
%TO.CVal,Fiducial*%
%TO.CLbN,Fiducial*%
%TO.CMnt,SMD*%
%TO.CRot,0*%
X159250000Y-81750000D03*
D11*
X159500035Y-80784291D02*
X159689318Y-80854393D01*
X159860606Y-80961158D01*
X160006902Y-81100222D01*
X160122205Y-81265884D01*
X160201804Y-81451369D01*
X160242448Y-81649145D01*
X160244998Y-81750000D01*
X160242448Y-81850854D01*
X160201804Y-82048630D01*
X160122205Y-82234115D01*
X160006902Y-82399777D01*
X159860606Y-82538841D01*
X159689318Y-82645606D01*
X159500035Y-82715708D01*
X159300529Y-82746272D01*
X159098938Y-82736048D01*
X158903546Y-82685458D01*
X158722332Y-82596567D01*
X158562719Y-82473018D01*
X158431245Y-82319870D01*
X158333291Y-82143390D01*
X158272866Y-81950803D01*
X158252447Y-81750000D01*
X158272866Y-81549196D01*
X158333291Y-81356609D01*
X158431245Y-81180129D01*
X158562719Y-81026981D01*
X158722332Y-80903432D01*
X158903546Y-80814541D01*
X159098938Y-80763951D01*
X159300529Y-80753727D01*
X159500035Y-80784291D01*
D13*
%TO.P,FID3,*%
X159250000Y-81750000D03*
%TD*%
D10*
%TO.C,R20*%
%TO.CFtp,R_0603_1608Metric*%
%TO.CVal,3.3k*%
%TO.CLbN,Resistor_SMD*%
%TO.CMnt,SMD*%
%TO.CRot,-90*%
X184702294Y-72912500D03*
D11*
X185427294Y-71437500D02*
X185427294Y-74387500D01*
X183977294Y-74387500D01*
X183977294Y-71437500D01*
X185427294Y-71437500D01*
D12*
%TO.P,R20,1*%
X184702294Y-72087500D03*
D13*
%TO.P,R20,2*%
X184702294Y-73737500D03*
%TD*%
D10*
%TO.C,C4*%
%TO.CFtp,C_0805_2012Metric*%
%TO.CVal,22uF*%
%TO.CLbN,Capacitor_SMD*%
%TO.CMnt,SMD*%
%TO.CRot,180*%
X193837200Y-85699776D03*
D11*
X195532200Y-84724776D02*
X195532200Y-86674776D01*
X192142200Y-86674776D01*
X192142200Y-84724776D01*
X195532200Y-84724776D01*
D12*
%TO.P,C4,1*%
X194787200Y-85699776D03*
D13*
%TO.P,C4,2*%
X192887200Y-85699776D03*
%TD*%
D10*
%TO.C,L1*%
%TO.CFtp,L_1008_2520Metric*%
%TO.CVal,1.0uh*%
%TO.CLbN,Inductor_SMD*%
%TO.CMnt,SMD*%
%TO.CRot,-90*%
X191297200Y-82160976D03*
D11*
X192642200Y-80215976D02*
X192642200Y-84105976D01*
X189952200Y-84105976D01*
X189952200Y-80215976D01*
X192642200Y-80215976D01*
D12*
%TO.P,L1,1,1*%
X191297200Y-81085976D03*
D13*
%TO.P,L1,2,2*%
X191297200Y-83235976D03*
%TD*%
D10*
%TO.C,C14*%
%TO.CFtp,C_0603_1608Metric*%
%TO.CVal,0.1uF*%
%TO.CLbN,Capacitor_SMD*%
%TO.CMnt,SMD*%
%TO.CRot,0*%
X174750000Y-82500000D03*
D11*
X176225000Y-81775000D02*
X176225000Y-83225000D01*
X173275000Y-83225000D01*
X173275000Y-81775000D01*
X176225000Y-81775000D01*
D12*
%TO.P,C14,1*%
X173975000Y-82500000D03*
D13*
%TO.P,C14,2*%
X175525000Y-82500000D03*
%TD*%
D10*
%TO.C,C18*%
%TO.CFtp,C_0402_1005Metric*%
%TO.CVal,10pF*%
%TO.CLbN,Capacitor_SMD*%
%TO.CMnt,SMD*%
%TO.CRot,90*%
X195716800Y-82677176D03*
D11*
X196171800Y-81772176D02*
X196171800Y-83582176D01*
X195261800Y-83582176D01*
X195261800Y-81772176D01*
X196171800Y-81772176D01*
D12*
%TO.P,C18,1*%
X195716800Y-83157176D03*
D13*
%TO.P,C18,2*%
X195716800Y-82197176D03*
%TD*%
D10*
%TO.C,C11*%
%TO.CFtp,C_0603_1608Metric*%
%TO.CVal,0.1uF*%
%TO.CLbN,Capacitor_SMD*%
%TO.CMnt,SMD*%
%TO.CRot,180*%
X194350000Y-76150000D03*
D11*
X195825000Y-75425000D02*
X195825000Y-76875000D01*
X192875000Y-76875000D01*
X192875000Y-75425000D01*
X195825000Y-75425000D01*
D12*
%TO.P,C11,1*%
X195125000Y-76150000D03*
D13*
%TO.P,C11,2*%
X193575000Y-76150000D03*
%TD*%
D10*
%TO.C,R18*%
%TO.CFtp,R_0603_1608Metric*%
%TO.CVal,10k*%
%TO.CLbN,Resistor_SMD*%
%TO.CMnt,SMD*%
%TO.CRot,-90*%
X178500000Y-80250000D03*
D11*
X179225000Y-78775000D02*
X179225000Y-81725000D01*
X177775000Y-81725000D01*
X177775000Y-78775000D01*
X179225000Y-78775000D01*
D12*
%TO.P,R18,1*%
X178500000Y-79425000D03*
D13*
%TO.P,R18,2*%
X178500000Y-81075000D03*
%TD*%
D10*
%TO.C,D4*%
%TO.CFtp,LED_0805_2012Metric*%
%TO.CVal,LED*%
%TO.CLbN,LED_SMD*%
%TO.CMnt,SMD*%
%TO.CRot,90*%
X186443749Y-73312500D03*
D11*
X187388749Y-71637500D02*
X187388749Y-74987500D01*
X185498749Y-74987500D01*
X185498749Y-71637500D01*
X187388749Y-71637500D01*
D12*
%TO.P,D4,1,K*%
X186443749Y-74250000D03*
D13*
%TO.P,D4,2,A*%
X186443749Y-72375000D03*
%TD*%
D10*
%TO.C,Q4*%
%TO.CFtp,SOT-523*%
%TO.CVal,DMG1012T*%
%TO.CLbN,Muffin_SMD*%
%TO.CMnt,SMD*%
%TO.CRot,180*%
X166000000Y-94000000D03*
D11*
X167145000Y-92955000D02*
X167145000Y-95045000D01*
X164855000Y-95045000D01*
X164855000Y-92955000D01*
X167145000Y-92955000D01*
D12*
%TO.P,Q4,1,G*%
X166645000Y-94500000D03*
D13*
%TO.P,Q4,2,S*%
X166645000Y-93500000D03*
%TO.P,Q4,3,D*%
X165355000Y-94000000D03*
%TD*%
D10*
%TO.C,C12*%
%TO.CFtp,C_0603_1608Metric*%
%TO.CVal,4.7uF*%
%TO.CLbN,Capacitor_SMD*%
%TO.CMnt,SMD*%
%TO.CRot,90*%
X177000000Y-80250000D03*
D11*
X177725000Y-78775000D02*
X177725000Y-81725000D01*
X176275000Y-81725000D01*
X176275000Y-78775000D01*
X177725000Y-78775000D01*
D12*
%TO.P,C12,1*%
X177000000Y-81025000D03*
D13*
%TO.P,C12,2*%
X177000000Y-79475000D03*
%TD*%
D10*
%TO.C,J3*%
%TO.CFtp,PinHeader_1x03_P2.54mm_Horizontal*%
%TO.CVal,Conn_01x03_Pin*%
%TO.CLbN,Connector_Muffin_THT.pretty*%
%TO.CMnt,TH*%
%TO.CRot,-90*%
X196790000Y-93615000D03*
D11*
X198555000Y-91850000D02*
X198555000Y-104150000D01*
X189945000Y-104150000D01*
X189945000Y-91850000D01*
X198555000Y-91850000D01*
D12*
%TO.P,J3,1,Pin_1*%
X196790000Y-93615000D03*
D13*
%TO.P,J3,2,Pin_2*%
X194250000Y-93615000D03*
%TO.P,J3,3,Pin_3*%
X191710000Y-93615000D03*
%TD*%
D10*
%TO.C,J1*%
%TO.CFtp,JST_PH_S2B-PH-K_1x02_P2.00mm_Horizontal*%
%TO.CVal,Conn_01x02_Pin*%
%TO.CLbN,Connector_Muffin_THT.pretty*%
%TO.CMnt,TH*%
%TO.CRot,0*%
X159750000Y-91300000D03*
D11*
X164195000Y-89455000D02*
X164195000Y-98045000D01*
X157305000Y-98045000D01*
X157305000Y-89455000D01*
X164195000Y-89455000D01*
D12*
%TO.P,J1,1,Pin_1*%
X159750000Y-91300000D03*
D13*
%TO.P,J1,2,Pin_2*%
X161750000Y-91300000D03*
%TD*%
D10*
%TO.C,R3*%
%TO.CFtp,R_0603_1608Metric*%
%TO.CVal,1.1k*%
%TO.CLbN,Resistor_SMD*%
%TO.CMnt,SMD*%
%TO.CRot,90*%
X163500000Y-81000000D03*
D11*
X164225000Y-79525000D02*
X164225000Y-82475000D01*
X162775000Y-82475000D01*
X162775000Y-79525000D01*
X164225000Y-79525000D01*
D12*
%TO.P,R3,1*%
X163500000Y-81825000D03*
D13*
%TO.P,R3,2*%
X163500000Y-80175000D03*
%TD*%
D10*
%TO.C,U1*%
%TO.CFtp,RGT16*%
%TO.CVal,BQ24073RGTR*%
%TO.CLbN,Muffin_SMD*%
%TO.CMnt,SMD*%
%TO.CRot,90*%
X164893700Y-84643700D03*
D11*
X167042700Y-82494700D02*
X167042700Y-86792700D01*
X162744700Y-86792700D01*
X162744700Y-82494700D01*
X167042700Y-82494700D01*
D12*
%TO.P,U1,1,TS*%
X164143699Y-86118701D03*
D13*
%TO.P,U1,2,BAT*%
X164643700Y-86118701D03*
%TO.P,U1,3,BAT*%
X165143700Y-86118701D03*
%TO.P,U1,4,\u002ACE*%
X165643701Y-86118701D03*
%TO.P,U1,5,EN2*%
X166368701Y-85393889D03*
%TO.P,U1,6,EN1*%
X166368701Y-84893763D03*
%TO.P,U1,7,\u002APGOOD*%
X166368701Y-84393637D03*
%TO.P,U1,8,VSS*%
X166368701Y-83893511D03*
%TO.P,U1,9,\u002ACHG*%
X165643701Y-83168699D03*
%TO.P,U1,10,OUT*%
X165143700Y-83168699D03*
%TO.P,U1,11,OUT*%
X164643700Y-83168699D03*
%TO.P,U1,12,ILIM*%
X164143699Y-83168699D03*
%TO.P,U1,13,IN*%
X163418699Y-83893511D03*
%TO.P,U1,14,TMR*%
X163418699Y-84393637D03*
%TO.P,U1,15,TD*%
X163418699Y-84893763D03*
%TO.P,U1,16,ISET*%
X163418699Y-85393889D03*
%TO.P,U1,17,EPAD*%
X164500000Y-85037400D03*
X165287400Y-85037400D03*
X164893700Y-84643700D03*
X164500000Y-84250000D03*
X165287400Y-84250000D03*
%TD*%
D10*
%TO.C,R10*%
%TO.CFtp,R_0603_1608Metric*%
%TO.CVal,5.1k*%
%TO.CLbN,Resistor_SMD*%
%TO.CMnt,SMD*%
%TO.CRot,180*%
X169800000Y-73700000D03*
D11*
X171275000Y-72975000D02*
X171275000Y-74425000D01*
X168325000Y-74425000D01*
X168325000Y-72975000D01*
X171275000Y-72975000D01*
D12*
%TO.P,R10,1*%
X170625000Y-73700000D03*
D13*
%TO.P,R10,2*%
X168975000Y-73700000D03*
%TD*%
D10*
%TO.C,SW1*%
%TO.CFtp,MSK12C02*%
%TO.CVal,SW_SPDT_SH*%
%TO.CLbN,Muffin_SMD*%
%TO.CMnt,SMD*%
%TO.CRot,180*%
X176000000Y-73000000D03*
D11*
X177695000Y-69905000D02*
X177695000Y-71305000D01*
X180445000Y-71305000D01*
X180445000Y-74695000D01*
X178795000Y-74695000D01*
X178795000Y-75845000D01*
X173205000Y-75845000D01*
X173205000Y-74695000D01*
X171555000Y-74695000D01*
X171555000Y-71305000D01*
X174305000Y-71305000D01*
X174305000Y-69905000D01*
X177695000Y-69905000D01*
D12*
%TO.P,SW1,1,A*%
X178250000Y-74950000D03*
D13*
%TO.P,SW1,2,B*%
X176750000Y-74950000D03*
%TO.P,SW1,3,C*%
X173750000Y-74950000D03*
%TO.P,SW1,SH,Shield*%
X179675000Y-74100000D03*
X179675000Y-71900000D03*
X172325000Y-74100000D03*
X172325000Y-71900000D03*
%TD*%
D10*
%TO.C,R2*%
%TO.CFtp,R_0402_1005Metric*%
%TO.CVal,100k*%
%TO.CLbN,Resistor_SMD*%
%TO.CMnt,SMD*%
%TO.CRot,90*%
X196732800Y-80772176D03*
D11*
X197197800Y-79847176D02*
X197197800Y-81697176D01*
X196267800Y-81697176D01*
X196267800Y-79847176D01*
X197197800Y-79847176D01*
D12*
%TO.P,R2,1*%
X196732800Y-81282176D03*
D13*
%TO.P,R2,2*%
X196732800Y-80262176D03*
%TD*%
D10*
%TO.C,U3*%
%TO.CFtp,X1SON-2_L1.0-W0.6-P0.65-BI*%
%TO.CVal,TPD1E10B06DPYR*%
%TO.CLbN,Muffin_SMD*%
%TO.CMnt,SMD*%
%TO.CRot,0*%
X191882800Y-91000000D03*
D11*
X192827800Y-90455000D02*
X192827800Y-91545000D01*
X190937800Y-91545000D01*
X190937800Y-90455000D01*
X192827800Y-90455000D01*
D12*
%TO.P,U3,1*%
X191382800Y-91000000D03*
D13*
%TO.P,U3,2*%
X192382800Y-91000000D03*
%TD*%
D10*
%TO.C,R5*%
%TO.CFtp,R_0603_1608Metric*%
%TO.CVal,3.3k*%
%TO.CLbN,Resistor_SMD*%
%TO.CMnt,SMD*%
%TO.CRot,180*%
X159400000Y-86000000D03*
D11*
X160875000Y-85275000D02*
X160875000Y-86725000D01*
X157925000Y-86725000D01*
X157925000Y-85275000D01*
X160875000Y-85275000D01*
D12*
%TO.P,R5,1*%
X160225000Y-86000000D03*
D13*
%TO.P,R5,2*%
X158575000Y-86000000D03*
%TD*%
D14*
X198000000Y-71000000D02*
G75*
G02*
X199000000Y-72000000I0J-1000000D01*
G01*
X199000000Y-72000000D02*
X199000000Y-97000000D01*
X157000000Y-97000000D02*
X157000000Y-72000000D01*
X157000000Y-72000000D02*
G75*
G02*
X158000000Y-71000000I1000000J0D01*
G01*
X158000000Y-71000000D02*
X198000000Y-71000000D01*
X198000000Y-98000000D02*
X158000000Y-98000000D01*
X158000000Y-98000000D02*
G75*
G02*
X157000000Y-97000014I0J1000000D01*
G01*
X199000000Y-97000000D02*
G75*
G02*
X198000000Y-98000000I-1000000J0D01*
G01*
M02*
